<svg width="320" height="65" viewBox="0 0 320 65" fill="none" xmlns="http://www.w3.org/2000/svg">
<rect width="320" height="65" fill="white"/>
<g filter="url(#filter0_d)">
<path d="M6.59375 46V42.0625L11.6875 41.1875V5.34375L6.59375 4.46875V0.5H17.9062L40.2188 35.9688L40.4062 35.9062V5.34375L34.8125 4.46875V0.5H51.1562V4.46875L46.0625 5.34375V46H40.4375L17.5312 10.3438L17.3438 10.4062V41.1875L22.9375 42.0625V46H6.59375ZM71.3438 46.6562C68.2188 46.6562 65.5208 45.9271 63.25 44.4688C61 42.9896 59.2604 40.9583 58.0312 38.375C56.8021 35.7708 56.1875 32.8021 56.1875 29.4688V28.7812C56.1875 25.4479 56.8021 22.4896 58.0312 19.9062C59.2604 17.3021 61 15.2604 63.25 13.7812C65.5208 12.3021 68.1979 11.5625 71.2812 11.5625C74.4062 11.5625 77.0938 12.3021 79.3438 13.7812C81.6146 15.2604 83.3646 17.2917 84.5938 19.875C85.8229 22.4583 86.4375 25.4271 86.4375 28.7812V29.4688C86.4375 32.8229 85.8229 35.8021 84.5938 38.4062C83.3646 40.9896 81.625 43.0104 79.375 44.4688C77.125 45.9271 74.4479 46.6562 71.3438 46.6562ZM71.3438 41.8438C74.2604 41.8438 76.4792 40.6771 78 38.3438C79.5208 36.0104 80.2812 33.0521 80.2812 29.4688V28.7812C80.2812 26.4062 79.9375 24.2917 79.25 22.4375C78.5833 20.5625 77.5833 19.0938 76.25 18.0312C74.9167 16.9479 73.2604 16.4062 71.2812 16.4062C69.3229 16.4062 67.6771 16.9479 66.3438 18.0312C65.0104 19.0938 64.0104 20.5625 63.3438 22.4375C62.6771 24.2917 62.3438 26.4062 62.3438 28.7812V29.4688C62.3438 33.0521 63.0938 36.0104 64.5938 38.3438C66.1146 40.6771 68.3646 41.8438 71.3438 41.8438ZM103.125 46.5312C100.625 46.5312 98.6354 45.8021 97.1562 44.3438C95.6979 42.8646 94.9688 40.5104 94.9688 37.2812V16.75H89.625V12.1875H94.9688V4.03125H101.125V12.1875H108.469V16.75H101.125V37.2812C101.125 38.9062 101.448 40.1042 102.094 40.875C102.74 41.6458 103.604 42.0312 104.688 42.0312C105.417 42.0312 106.229 41.9688 107.125 41.8438C108.021 41.6979 108.719 41.5729 109.219 41.4688L110.062 45.5C109.167 45.7708 108.062 46.0104 106.75 46.2188C105.458 46.4271 104.25 46.5312 103.125 46.5312ZM128.781 46.6562C125.656 46.6562 122.938 45.9479 120.625 44.5312C118.312 43.0938 116.521 41.1042 115.25 38.5625C114 36.0208 113.375 33.0833 113.375 29.75V28.375C113.375 25.1667 114.031 22.3021 115.344 19.7812C116.677 17.2396 118.438 15.2396 120.625 13.7812C122.833 12.3021 125.24 11.5625 127.844 11.5625C132.385 11.5625 135.823 12.9375 138.156 15.6875C140.51 18.4375 141.688 22.1042 141.688 26.6875V30.5312H119.75L119.656 30.6875C119.719 33.9375 120.542 36.6146 122.125 38.7188C123.708 40.8021 125.927 41.8438 128.781 41.8438C130.865 41.8438 132.688 41.5521 134.25 40.9688C135.833 40.3646 137.198 39.5417 138.344 38.5L140.75 42.5C139.542 43.6667 137.938 44.6562 135.938 45.4688C133.958 46.2604 131.573 46.6562 128.781 46.6562ZM119.938 25.7188H135.531V24.9062C135.531 22.4896 134.885 20.4688 133.594 18.8438C132.302 17.2188 130.385 16.4062 127.844 16.4062C125.781 16.4062 124.021 17.2812 122.562 19.0312C121.104 20.7604 120.208 22.9375 119.875 25.5625L119.938 25.7188ZM160.375 46.6562C158.104 46.6562 155.979 46.4271 154 45.9688C152.021 45.5104 149.917 44.8021 147.688 43.8438L147.625 35.8125H152.281L153.438 40.6562C155.646 41.5729 157.958 42.0312 160.375 42.0312C162.875 42.0312 164.667 41.5521 165.75 40.5938C166.833 39.6354 167.375 38.4479 167.375 37.0312C167.375 35.6979 166.823 34.5729 165.719 33.6562C164.635 32.7188 162.656 31.9271 159.781 31.2812C155.698 30.3438 152.688 29.0938 150.75 27.5312C148.833 25.9479 147.875 23.8438 147.875 21.2188C147.875 19.3854 148.406 17.75 149.469 16.3125C150.531 14.8542 152.01 13.6979 153.906 12.8438C155.802 11.9896 158.01 11.5625 160.531 11.5625C163.094 11.5625 165.281 11.8542 167.094 12.4375C168.927 13.0208 170.521 13.8021 171.875 14.7812L172.188 22.5H167.562L166.562 18C165.833 17.4583 164.969 17.0417 163.969 16.75C162.969 16.4583 161.823 16.3125 160.531 16.3125C158.615 16.3125 157.052 16.7604 155.844 17.6562C154.656 18.5521 154.062 19.6771 154.062 21.0312C154.062 21.8229 154.229 22.5104 154.562 23.0938C154.917 23.6771 155.583 24.2083 156.562 24.6875C157.542 25.1458 158.979 25.6042 160.875 26.0625C165.583 27.1667 168.865 28.5729 170.719 30.2812C172.594 31.9896 173.531 34.0938 173.531 36.5938C173.531 39.4479 172.469 41.8438 170.344 43.7812C168.24 45.6979 164.917 46.6562 160.375 46.6562Z" fill="#3556A8"/>
<path d="M178.809 46V43.376L184.569 42.544V6.512L178.809 5.808V3.184H190.649L204.985 38.384L218.553 3.184H231.161V5.808L225.273 6.512C225.23 9.2 225.187 11.9307 225.145 14.704C225.145 17.4773 225.145 20.2507 225.145 23.024V26.16C225.145 28.8907 225.145 31.6427 225.145 34.416C225.187 37.1467 225.23 39.8987 225.273 42.672L231.161 43.376V46H213.753V43.376L219.129 42.672C219.214 39.984 219.257 37.2533 219.257 34.48C219.257 31.7067 219.257 28.9547 219.257 26.224V10.288L205.369 46H202.169L187.513 10.288L187.897 22.384V42.544L193.145 43.376V46H178.809ZM259.437 46.64C257.901 46.64 256.621 46.192 255.597 45.296C254.573 44.4 253.933 43.2053 253.677 41.712C251.927 43.4187 250.391 44.6987 249.069 45.552C247.746 46.4053 246.146 46.832 244.269 46.832C241.922 46.832 239.895 46.1707 238.189 44.848C236.525 43.4827 235.693 41.4773 235.693 38.832C235.693 37.5947 235.97 36.4427 236.525 35.376C237.122 34.3093 238.189 33.264 239.725 32.24C241.261 31.216 243.458 30.192 246.317 29.168C247.298 28.8267 248.429 28.464 249.708 28.08C250.988 27.696 252.269 27.3547 253.549 27.056V25.456C253.549 22.3413 253.079 20.272 252.141 19.248C251.202 18.224 249.666 17.712 247.533 17.712C247.063 17.712 246.53 17.7333 245.933 17.776C245.378 17.8187 244.759 17.9253 244.077 18.096L242.861 22.256C242.263 24.304 241.154 25.328 239.533 25.328C237.741 25.328 236.738 24.4533 236.525 22.704C237.122 20.272 238.53 18.352 240.749 16.944C243.01 15.4933 245.762 14.768 249.005 14.768C252.375 14.768 254.871 15.6213 256.493 17.328C258.114 18.992 258.925 21.8507 258.925 25.904V39.536C258.925 40.9013 259.138 41.8827 259.565 42.48C259.991 43.0347 260.546 43.312 261.229 43.312C261.783 43.312 262.253 43.184 262.637 42.928C263.021 42.672 263.383 42.3307 263.725 41.904L265.005 43.312C264.237 44.5493 263.383 45.424 262.445 45.936C261.549 46.4053 260.546 46.64 259.437 46.64ZM241.389 37.872C241.389 39.5787 241.879 40.7947 242.861 41.52C243.842 42.2453 245.058 42.608 246.509 42.608C247.149 42.608 247.746 42.5227 248.301 42.352C248.898 42.1813 249.602 41.8613 250.413 41.392C251.223 40.88 252.269 40.1547 253.549 39.216V29.424C252.439 29.7227 251.351 30.064 250.285 30.448C249.218 30.7893 248.343 31.088 247.661 31.344C245.826 32.0693 244.461 32.816 243.565 33.584C242.669 34.352 242.071 35.0987 241.773 35.824C241.517 36.5493 241.389 37.232 241.389 37.872ZM278.495 46.832C276.276 46.832 274.506 46.2347 273.183 45.04C271.86 43.8453 271.199 42.0107 271.199 39.536C271.199 38.7253 271.199 37.936 271.199 37.168C271.242 36.3573 271.263 35.3333 271.263 34.096V18.992H265.951V16.176L271.647 15.472L273.311 6.896H277.151L276.767 15.6H285.407V18.992H276.703V38.832C276.703 40.4533 277.023 41.648 277.663 42.416C278.303 43.1413 279.156 43.504 280.223 43.504C280.948 43.504 281.631 43.3547 282.271 43.056C282.954 42.7573 283.7 42.3307 284.511 41.776L286.047 43.44C284.298 45.7013 281.78 46.832 278.495 46.832ZM303.404 17.712C302.209 17.712 300.993 18.0533 299.756 18.736C298.561 19.4187 297.516 20.5067 296.62 22C295.766 23.4933 295.212 25.4773 294.956 27.952H306.604C308.14 27.952 309.142 27.632 309.612 26.992C310.124 26.352 310.38 25.5627 310.38 24.624C310.38 23.3867 310.06 22.256 309.42 21.232C308.822 20.1653 307.99 19.312 306.924 18.672C305.9 18.032 304.726 17.712 303.404 17.712ZM303.34 46.832C299.03 46.832 295.574 45.4453 292.972 42.672C290.369 39.856 289.068 35.9947 289.068 31.088C289.068 27.8027 289.729 24.944 291.052 22.512C292.417 20.08 294.209 18.1813 296.428 16.816C298.689 15.4507 301.142 14.768 303.788 14.768C306.006 14.768 308.012 15.2587 309.804 16.24C311.596 17.2213 313.025 18.6293 314.092 20.464C315.158 22.256 315.692 24.4533 315.692 27.056C315.692 27.7813 315.649 28.464 315.564 29.104C315.478 29.7013 315.372 30.2133 315.244 30.64H294.828C294.913 34.5653 295.894 37.552 297.772 39.6C299.649 41.648 302.124 42.672 305.196 42.672C307.244 42.672 308.95 42.2667 310.316 41.456C311.681 40.6027 312.94 39.5147 314.092 38.192L315.628 39.408C314.433 41.6693 312.812 43.4827 310.764 44.848C308.716 46.1707 306.241 46.832 303.34 46.832Z" fill="#651BB8"/>
</g>
<line x1="4" y1="52.5" x2="168" y2="52.5" stroke="#7E2E9A"/>
<g filter="url(#filter1_d)">
<line x1="3.99994" y1="56.5" x2="168" y2="56.4797" stroke="#7E2E9A"/>
</g>
<defs>
<filter id="filter0_d" x="2.59375" y="0.5" width="317.098" height="54.332" filterUnits="userSpaceOnUse" color-interpolation-filters="sRGB">
<feFlood flood-opacity="0" result="BackgroundImageFix"/>
<feColorMatrix in="SourceAlpha" type="matrix" values="0 0 0 0 0 0 0 0 0 0 0 0 0 0 0 0 0 0 127 0"/>
<feOffset dy="4"/>
<feGaussianBlur stdDeviation="2"/>
<feColorMatrix type="matrix" values="0 0 0 0 0 0 0 0 0 0 0 0 0 0 0 0 0 0 0.25 0"/>
<feBlend mode="normal" in2="BackgroundImageFix" result="effect1_dropShadow"/>
<feBlend mode="normal" in="SourceGraphic" in2="effect1_dropShadow" result="shape"/>
</filter>
<filter id="filter1_d" x="-0.00012207" y="55.9797" width="172" height="9.02034" filterUnits="userSpaceOnUse" color-interpolation-filters="sRGB">
<feFlood flood-opacity="0" result="BackgroundImageFix"/>
<feColorMatrix in="SourceAlpha" type="matrix" values="0 0 0 0 0 0 0 0 0 0 0 0 0 0 0 0 0 0 127 0"/>
<feOffset dy="4"/>
<feGaussianBlur stdDeviation="2"/>
<feColorMatrix type="matrix" values="0 0 0 0 0 0 0 0 0 0 0 0 0 0 0 0 0 0 0.25 0"/>
<feBlend mode="normal" in2="BackgroundImageFix" result="effect1_dropShadow"/>
<feBlend mode="normal" in="SourceGraphic" in2="effect1_dropShadow" result="shape"/>
</filter>
</defs>
</svg>
